<svg width="28" height="28" viewBox="0 0 28 28" fill="none" xmlns="http://www.w3.org/2000/svg">
<path fill-rule="evenodd" clip-rule="evenodd" d="M2.625 14C2.625 9.65076 6.15076 6.125 10.5 6.125H19.8333C22.8939 6.125 25.375 8.60609 25.375 11.6667C25.375 14.7272 22.8939 17.2083 19.8333 17.2083H10.3333C8.56142 17.2083 7.125 15.7719 7.125 14C7.125 12.2281 8.56142 10.7917 10.3333 10.7917H19.5C19.9832 10.7917 20.375 11.1834 20.375 11.6667C20.375 12.1499 19.9832 12.5417 19.5 12.5417H10.3333C9.52792 12.5417 8.875 13.1946 8.875 14C8.875 14.8054 9.52792 15.4583 10.3333 15.4583H19.8333C21.9274 15.4583 23.625 13.7607 23.625 11.6667C23.625 9.57259 21.9274 7.875 19.8333 7.875H10.5C7.11726 7.875 4.375 10.6173 4.375 14C4.375 17.3827 7.11726 20.125 10.5 20.125H19.5C19.9832 20.125 20.375 20.5168 20.375 21C20.375 21.4832 19.9832 21.875 19.5 21.875H10.5C6.15076 21.875 2.625 18.3492 2.625 14Z" fill="#2B2C38"/>
</svg>
