<svg width="33" height="32" viewBox="0 0 33 32" fill="none" xmlns="http://www.w3.org/2000/svg">
<path d="M19.3565 3.83325C17.721 3.83325 16.1525 4.48295 14.996 5.63943C13.8395 6.7959 13.1898 8.36442 13.1898 9.99992V13.4333H9.88984C9.72416 13.4333 9.58984 13.5676 9.58984 13.7333V18.2666C9.58984 18.4323 9.72416 18.5666 9.88984 18.5666H13.1898V27.8666C13.1898 28.0323 13.3242 28.1666 13.4898 28.1666H18.0232C18.1889 28.1666 18.3232 28.0323 18.3232 27.8666V18.5666H21.6524C21.7901 18.5666 21.9101 18.4729 21.9434 18.3393L23.0768 13.806C23.1241 13.6167 22.9809 13.4333 22.7857 13.4333H18.3232V9.99992C18.3232 9.72586 18.432 9.46303 18.6258 9.26924C18.8196 9.07545 19.0825 8.96658 19.3565 8.96658H22.8232C22.9889 8.96658 23.1232 8.83227 23.1232 8.66658V4.13325C23.1232 3.96757 22.9889 3.83325 22.8232 3.83325H19.3565Z" fill="white"/>
</svg>
