<svg width="33" height="32" viewBox="0 0 33 32" fill="none" xmlns="http://www.w3.org/2000/svg">
<path d="M6.75619 2.5C5.19138 2.5 3.92285 3.76853 3.92285 5.33333C3.92285 6.89814 5.19138 8.16667 6.75619 8.16667C8.32099 8.16667 9.58952 6.89814 9.58952 5.33333C9.58952 3.76853 8.32099 2.5 6.75619 2.5Z" fill="white"/>
<path d="M4.08952 10.5C3.99747 10.5 3.92285 10.5746 3.92285 10.6667V28C3.92285 28.092 3.99747 28.1667 4.08952 28.1667H9.42285C9.5149 28.1667 9.58952 28.092 9.58952 28V10.6667C9.58952 10.5746 9.5149 10.5 9.42285 10.5H4.08952Z" fill="white"/>
<path d="M12.7562 10.5C12.6641 10.5 12.5895 10.5746 12.5895 10.6667V28C12.5895 28.092 12.6641 28.1667 12.7562 28.1667H18.0895C18.1816 28.1667 18.2562 28.092 18.2562 28V18.6667C18.2562 18.0036 18.5196 17.3677 18.9884 16.8989C19.4573 16.4301 20.0931 16.1667 20.7562 16.1667C21.4192 16.1667 22.0551 16.4301 22.524 16.8989C22.9928 17.3677 23.2562 18.0036 23.2562 18.6667V28C23.2562 28.092 23.3308 28.1667 23.4229 28.1667H28.7562C28.8482 28.1667 28.9229 28.092 28.9229 28V16.507C28.9229 13.2713 26.1087 10.74 22.8893 11.0327C21.8964 11.1229 20.9148 11.3697 19.9981 11.7626L18.2562 12.5091V10.6667C18.2562 10.5746 18.1816 10.5 18.0895 10.5H12.7562Z" fill="white"/>
</svg>
