<svg width="288" height="80" viewBox="0 0 288 80" fill="none" xmlns="http://www.w3.org/2000/svg">
<g clip-path="url(#clip0_165_21150)">
<path d="M10.9942 9.18178L0.00195312 33.3298L2.46734 34.4658L13.4596 10.3178L10.9942 9.18178Z" fill="#E9561D"/>
<path d="M269.215 43.3762L267.285 45.2925L284.931 63.2838L286.861 61.3675L269.215 43.3762Z" fill="#E9561D"/>
<path d="M14.3549 0.561768L32.3791 40.2007H7.25684V42.8486H33.6551L42.0292 61.3842H44.9003L17.3057 0.561768H14.3549Z" fill="#2B2C38"/>
<path d="M75.8443 9.38825C69.9426 3.85164 62.1268 1.04321 52.6362 1.04321H36.4463V3.69116H51.9981C61.1697 3.61092 68.5868 6.17862 73.9302 11.2338C79.3534 16.2087 82.0651 22.9489 82.0651 31.1335C82.0651 39.318 79.3534 46.0583 73.9302 51.0332C68.5868 56.0884 61.1697 58.6561 51.9981 58.6561H49.9246V61.304H52.6362C62.1268 61.304 69.9426 58.4956 75.7646 53.0392C81.6663 47.4223 84.6969 40.0402 84.6969 31.1335C84.6969 22.2268 81.746 14.9249 75.8443 9.38825Z" fill="#2B2C38"/>
<path d="M134.942 0.561768L109.501 57.1315L83.9795 0.561768H81.1084L108.464 61.304H110.537L137.893 0.561768H134.942Z" fill="#2B2C38"/>
<path d="M143.794 0.561768L161.819 40.2007H136.696V42.8486H163.015L171.469 61.3842H174.34L146.745 0.561768H143.794Z" fill="#2B2C38"/>
<path d="M221.234 56.3291L179.045 1.04321H176.652V61.3842H179.364V5.9379L221.553 61.3842H223.946V1.04321H221.234V56.3291Z" fill="#2B2C38"/>
<path d="M278.656 8.90672C273.074 2.96891 266.055 0 257.681 0C249.307 0 242.289 2.96891 236.786 8.90672C231.123 14.8445 228.332 22.3069 228.332 31.2136C228.332 38.7563 230.406 45.336 234.473 50.8726C238.461 56.2487 243.804 59.8596 250.344 61.4644L252.098 61.8656C254.013 62.1866 255.927 62.347 257.761 62.347C259.595 62.347 261.509 62.1866 263.423 61.7854L265.098 61.3842C268.368 60.5817 271.399 59.2177 274.031 57.4524L274.589 57.0512L272.675 55.0451L272.276 55.2859C268.049 58.1745 263.104 59.6189 257.681 59.6189C250.264 59.6189 243.884 56.8907 238.7 51.5145C233.516 46.0582 230.964 39.318 230.964 31.0532C230.964 22.8686 233.596 15.9679 238.7 10.672C243.884 5.21565 250.264 2.48746 257.681 2.48746C265.098 2.48746 271.478 5.21565 276.662 10.672C281.767 15.9679 284.398 22.8686 284.398 31.0532C284.398 37.7934 282.644 43.5707 279.215 48.4654L278.896 48.8666L280.81 50.7924L281.208 50.2307C285.116 44.9348 287.11 38.5155 287.11 31.2136C287.11 22.3069 284.239 14.8445 278.656 8.90672Z" fill="#2B2C38"/>
<path d="M134.304 78.7963L137.175 72.2166H137.813L140.684 78.7963H139.966L139.169 77.031H135.739L134.942 78.7963H134.304ZM136.058 76.3891H139.009L137.574 73.0992L136.058 76.3891Z" fill="#E84E24"/>
<path d="M142.758 78.7964V72.2969H144.911C145.948 72.2969 146.825 72.6178 147.463 73.1795C148.101 73.8214 148.42 74.5436 148.42 75.5065C148.42 76.4694 148.101 77.2718 147.463 77.8335C146.825 78.4754 145.948 78.7161 144.911 78.7161H142.758V78.7964ZM143.476 78.1545H144.831C145.709 78.1545 146.426 77.9137 146.985 77.4323C147.463 76.9508 147.782 76.3089 147.782 75.5065C147.782 74.7041 147.543 74.0622 146.985 73.5807C146.506 73.0993 145.788 72.8586 144.831 72.8586H143.476V78.1545Z" fill="#E84E24"/>
<path d="M152.727 78.7963L149.855 72.2166H150.573L152.966 77.8334L155.358 72.2166H156.076L153.205 78.7963H152.727Z" fill="#E84E24"/>
<path d="M156.953 78.7963L159.824 72.2166H160.462L163.333 78.7963H162.616L161.818 77.031H158.389L157.591 78.7963H156.953ZM158.708 76.3891H161.659L160.223 73.0992L158.708 76.3891Z" fill="#E84E24"/>
<path d="M165.407 78.7964V72.2969H165.966L170.033 77.5928V72.2969H170.671V78.7964H170.113L166.045 73.5005V78.7964H165.407Z" fill="#E84E24"/>
<path d="M174.101 77.9939C173.463 77.352 173.144 76.5495 173.144 75.5867C173.144 74.6238 173.463 73.8214 174.101 73.1794C174.739 72.5375 175.536 72.2166 176.493 72.2166C177.211 72.2166 177.769 72.377 178.328 72.698V73.4202C177.769 73.019 177.131 72.8585 176.493 72.8585C175.775 72.8585 175.137 73.0992 174.579 73.6609C174.101 74.1423 173.861 74.7843 173.861 75.5867C173.861 76.3891 174.101 77.031 174.579 77.5124C175.058 77.9939 175.696 78.3148 176.493 78.3148C177.211 78.3148 177.849 78.0741 178.407 77.6729V78.3951C177.849 78.7963 177.211 78.9568 176.493 78.9568C175.536 78.8765 174.739 78.5556 174.101 77.9939Z" fill="#E84E24"/>
<path d="M180.641 78.7964V72.2969H185.107V72.9388H181.358V75.0251H184.469V75.667H181.358V78.2347H185.266V78.8766H180.641V78.7964Z" fill="#E84E24"/>
<path d="M187.419 78.7964V72.2969H189.572C190.609 72.2969 191.486 72.6178 192.124 73.1795C192.762 73.8214 193.081 74.5436 193.081 75.5065C193.081 76.4694 192.762 77.2718 192.124 77.8335C191.486 78.4754 190.609 78.7161 189.572 78.7161H187.419V78.7964ZM188.057 78.1545H189.413C190.29 78.1545 191.008 77.9137 191.566 77.4323C192.045 76.9508 192.364 76.3089 192.364 75.5065C192.364 74.7041 192.124 74.0622 191.566 73.5807C191.088 73.0993 190.37 72.8586 189.413 72.8586H188.057V78.1545Z" fill="#E84E24"/>
<path d="M204.167 77.5124C203.769 78.0741 203.21 78.4753 202.572 78.7161C202.971 79.1173 203.37 79.2777 203.769 79.2777C204.088 79.2777 204.327 79.1975 204.566 79.037V79.6789C204.327 79.8394 204.008 79.8394 203.689 79.8394C203.45 79.8394 203.21 79.7592 202.971 79.6789C202.732 79.5987 202.572 79.4382 202.413 79.2777C202.253 79.1173 202.094 78.9568 201.855 78.7161C201.775 78.7161 201.695 78.7161 201.535 78.7161C200.578 78.7161 199.861 78.3951 199.223 77.7532C198.585 77.1112 198.266 76.3088 198.266 75.3459C198.266 74.3831 198.585 73.5806 199.223 72.9387C199.861 72.2968 200.578 71.9758 201.535 71.9758C202.493 71.9758 203.21 72.2968 203.848 72.9387C204.486 73.5806 204.805 74.3831 204.805 75.3459C204.805 76.3088 204.566 76.9508 204.167 77.5124ZM201.535 78.2346C202.253 78.2346 202.891 77.9939 203.37 77.4322C203.848 76.9508 204.088 76.2286 204.088 75.5064C204.088 74.704 203.848 74.0621 203.37 73.5806C202.891 73.0992 202.253 72.7782 201.535 72.7782C200.818 72.7782 200.18 73.019 199.701 73.5806C199.223 74.0621 198.983 74.7843 198.983 75.5064C198.983 76.3088 199.223 76.9508 199.701 77.4322C200.259 77.9939 200.818 78.2346 201.535 78.2346Z" fill="#E84E24"/>
<path d="M207.836 78.1544C207.357 77.6729 207.118 76.9508 207.118 75.9879V72.2166H207.836V75.9879C207.836 77.4322 208.554 78.2346 209.83 78.2346C211.026 78.2346 211.824 77.4322 211.824 75.9879V72.2166H212.541V75.9879C212.541 76.8705 212.302 77.5927 211.824 78.1544C211.345 78.6358 210.707 78.8765 209.91 78.8765C208.952 78.8765 208.314 78.6358 207.836 78.1544Z" fill="#E84E24"/>
<path d="M214.057 78.7963L216.928 72.2166H217.566L220.437 78.7963H219.719L218.922 77.031H215.492L214.695 78.7963H214.057ZM215.811 76.3891H218.762L217.327 73.0992L215.811 76.3891Z" fill="#E84E24"/>
<path d="M222.511 78.7964V72.2969H223.229V78.1545H226.817V78.7964H222.511Z" fill="#E84E24"/>
<path d="M228.891 78.7964V72.2969H229.608V78.7964H228.891Z" fill="#E84E24"/>
<path d="M233.916 78.7964V72.9388H231.683V72.2969H236.867V72.9388H234.633V78.7964H233.916Z" fill="#E84E24"/>
<path d="M241.093 78.7964V75.8275L238.541 72.2969H239.339L241.412 75.1855L243.486 72.2969H244.283L241.731 75.8275V78.7964H241.093Z" fill="#E84E24"/>
<path d="M249.467 78.7964V72.2969H250.185V78.7964H249.467Z" fill="#E84E24"/>
<path d="M252.896 78.7964V72.2969H253.455L257.522 77.5928V72.2969H258.16V78.7964H257.602L253.534 73.5005V78.7964H252.896Z" fill="#E84E24"/>
<path d="M264.062 78.7964V72.2969H264.779V78.1545H268.368V78.7964H264.062Z" fill="#E84E24"/>
<path d="M270.123 78.7963L272.994 72.2166H273.632L276.503 78.7963H275.785L274.988 77.031H271.559L270.761 78.7963H270.123ZM271.798 76.3891H274.749L273.313 73.0992L271.798 76.3891Z" fill="#E84E24"/>
<path d="M279.614 78.7963L277.381 72.2166H278.178L280.013 77.6729L281.688 72.2166H282.246L283.921 77.6729L285.675 72.2166H286.393L284.16 78.7963H283.522L281.847 73.4202L280.172 78.7963H279.614Z" fill="#E84E24"/>
</g>
<defs>
<clipPath id="clip0_165_21150">
<rect width="287.111" height="80" fill="white"/>
</clipPath>
</defs>
</svg>
