<svg width="208" height="59" viewBox="0 0 208 59" fill="none" xmlns="http://www.w3.org/2000/svg">
<g clip-path="url(#clip0_165_8995)">
<path d="M7.96537 7.02586L0.00195312 24.5332L1.78803 25.3568L9.75144 7.84947L7.96537 7.02586Z" fill="#E9561D"/>
<path d="M195.036 31.817L193.638 33.2063L206.421 46.25L207.82 44.8607L195.036 31.817Z" fill="#E9561D"/>
<path d="M10.4 0.776367L23.4578 29.5146H5.25781V31.4343H24.3823L30.4489 44.8727H32.5289L12.5378 0.776367H10.4Z" fill="#2B2C38"/>
<path d="M54.9465 7.17564C50.671 3.1616 45.0087 1.12549 38.1332 1.12549H26.4043V3.04525H37.671C44.3154 2.98707 49.6887 4.84866 53.5598 8.51365C57.4887 12.1205 59.4532 17.0071 59.4532 22.9409C59.4532 28.8747 57.4887 33.7614 53.5598 37.3682C49.6887 41.0332 44.3154 42.8948 37.671 42.8948H36.1687V44.8146H38.1332C45.0087 44.8146 50.671 42.7784 54.8887 38.8226C59.1643 34.7504 61.3598 29.3983 61.3598 22.9409C61.3598 16.4836 59.2221 11.1897 54.9465 7.17564Z" fill="#2B2C38"/>
<path d="M97.7598 0.776367L79.3287 41.7894L60.8398 0.776367H58.7598L78.5775 44.8145H80.0798L99.8975 0.776367H97.7598Z" fill="#2B2C38"/>
<path d="M104.173 0.776367L117.231 29.5146H99.0312V31.4343H118.098L124.222 44.8727H126.302L106.311 0.776367H104.173Z" fill="#2B2C38"/>
<path d="M160.275 41.2077L129.711 1.12549H127.978V44.8727H129.942V4.67413L160.506 44.8727H162.24V1.12549H160.275V41.2077Z" fill="#2B2C38"/>
<path d="M201.876 6.82651C197.831 2.5216 192.747 0.369141 186.68 0.369141C180.614 0.369141 175.529 2.5216 171.542 6.82651C167.44 11.1314 165.418 16.5417 165.418 22.999C165.418 28.4674 166.92 33.2377 169.867 37.2518C172.756 41.1495 176.627 43.7673 181.365 44.9308L182.636 45.2217C184.022 45.4544 185.409 45.5707 186.738 45.5707C188.067 45.5707 189.454 45.4544 190.84 45.1635L192.054 44.8727C194.422 44.2909 196.618 43.3019 198.525 42.0221L198.929 41.7312L197.542 40.2769L197.254 40.4514C194.191 42.5457 190.609 43.5928 186.68 43.5928C181.307 43.5928 176.685 41.6149 172.929 37.7172C169.174 33.7613 167.325 28.8747 167.325 22.8827C167.325 16.9489 169.231 11.9459 172.929 8.10635C176.685 4.15048 181.307 2.17255 186.68 2.17255C192.054 2.17255 196.676 4.15048 200.431 8.10635C204.129 11.9459 206.036 16.9489 206.036 22.8827C206.036 27.7693 204.765 31.9579 202.28 35.5066L202.049 35.7974L203.436 37.1936L203.725 36.7864C206.556 32.9469 208 28.2929 208 22.999C208 16.5417 205.92 11.1314 201.876 6.82651Z" fill="#2B2C38"/>
</g>
<defs>
<clipPath id="clip0_165_8995">
<rect width="208" height="58" fill="white" transform="translate(0 0.369141)"/>
</clipPath>
</defs>
</svg>
