<svg width="84" height="84" viewBox="0 0 84 84" fill="none" xmlns="http://www.w3.org/2000/svg">
<path d="M67.1649 37.839V25.1649C67.1649 11.289 55.8759 0 42 0C28.1241 0 16.8351 11.289 16.8351 25.1649V37.839C15.1341 39.1023 14.0293 41.1257 14.0293 43.4029V70.7605C14.0293 74.5672 16.2328 78.0312 19.643 79.5859C25.8869 82.4324 33.8267 84 42 84C50.1733 84 58.1131 82.4324 64.3568 79.5861C67.7673 78.0312 69.9708 74.5671 69.9708 70.7605V43.4029C69.9708 41.126 68.866 39.1027 67.1649 37.839ZM19.4655 25.1649C19.4655 12.7395 29.5744 2.63041 42 2.63041C54.4256 2.63041 64.5345 12.7395 64.5345 25.1649V36.6393C64.0539 36.5333 63.5555 36.476 63.0438 36.476H61.5531V25.1649C61.5531 14.3832 52.7815 5.61159 41.9998 5.61159C31.2181 5.61159 22.4467 14.3834 22.4467 25.1649V36.476H20.956C20.4443 36.476 19.9459 36.5336 19.4653 36.6393V25.1649H19.4655ZM58.9227 25.1649V36.476H25.0773V25.1649C25.0773 15.8337 32.6688 8.24217 42 8.24217C51.3312 8.24217 58.9227 15.8337 58.9227 25.1649ZM67.3403 70.7605C67.3403 73.5395 65.741 76.0643 63.2658 77.1926C57.3572 79.8861 49.8048 81.3696 42 81.3696C34.1952 81.3696 26.6427 79.8861 20.7342 77.1926C18.2592 76.0643 16.6597 73.5395 16.6597 70.7605V43.4029C16.6597 41.0338 18.5871 39.1064 20.9562 39.1064H63.0438C65.4129 39.1064 67.3403 41.0338 67.3403 43.4029V70.7605Z" fill="#E9561D"/>
<path d="M42.0001 49.1023C38.1806 49.1023 35.0732 52.2098 35.0732 56.0292C35.0732 58.2099 36.1316 60.2682 37.879 61.5679V65.8496C37.879 68.1221 39.7277 69.9707 42.0001 69.9707C44.2726 69.9707 46.1212 68.1221 46.1212 65.8496V61.5679C47.8686 60.2682 48.927 58.2099 48.927 56.0292C48.927 52.2098 45.8197 49.1023 42.0001 49.1023ZM44.1444 59.7258C43.7397 59.9616 43.4906 60.3945 43.4906 60.8626V65.8498C43.4906 66.6717 42.8219 67.3405 42 67.3405C41.178 67.3405 40.5093 66.6717 40.5093 65.8498V60.8628C40.5093 60.3946 40.2604 59.9616 39.8555 59.726C38.5081 58.9416 37.7035 57.5597 37.7035 56.0293C37.7035 53.6603 39.6309 51.7329 42 51.7329C44.369 51.7329 46.2964 53.6603 46.2964 56.0293C46.2966 57.5597 45.492 58.9416 44.1444 59.7258Z" fill="#E9561D"/>
<path d="M63.0438 42.0876C62.3175 42.0876 61.7285 42.6764 61.7285 43.4029V44.8058C61.7285 45.5321 62.3173 46.1211 63.0438 46.1211C63.7701 46.1211 64.3591 45.5322 64.3591 44.8058V43.4029C64.3591 42.6766 63.7703 42.0876 63.0438 42.0876Z" fill="#E9561D"/>
<path d="M63.0438 49.1023C62.3175 49.1023 61.7285 49.6911 61.7285 50.4176V61.6409C61.7285 62.3672 62.3173 62.9562 63.0438 62.9562C63.7701 62.9562 64.3591 62.3674 64.3591 61.6409V50.4176C64.3591 49.6913 63.7703 49.1023 63.0438 49.1023Z" fill="#E9561D"/>
<path d="M20.9559 54.7141C20.2296 54.7141 19.6406 55.3029 19.6406 56.0293V71.4616C19.6406 72.1879 20.2294 72.7768 20.9559 72.7768C21.6822 72.7768 22.2712 72.188 22.2712 71.4616V56.0293C22.271 55.3029 21.6822 54.7141 20.9559 54.7141Z" fill="#E9561D"/>
</svg>
