<svg width="84" height="84" viewBox="0 0 84 84" fill="none" xmlns="http://www.w3.org/2000/svg">
<path fill-rule="evenodd" clip-rule="evenodd" d="M49.2457 69.1636V81.5381H76.5336C79.298 81.5381 81.539 79.2963 81.539 76.5307V49.2325H68.816V50.0554C70.3909 51.5396 70.4758 54.1013 68.864 55.6814C66.828 57.6774 63.5703 57.6773 61.5343 55.6815L61.5342 55.6814C59.9224 54.1013 60.0074 51.5396 61.5822 50.0554V49.2325H49.2457V52.1736C49.2457 52.8535 48.6948 53.4046 48.0153 53.4046C47.3357 53.4046 46.7848 52.8535 46.7848 52.1736V48.0836C46.7848 47.3567 47.374 46.7706 48.0973 46.7706H62.0034C63.1297 46.7706 64.0432 47.6839 64.0432 48.8112V50.6484C64.0432 51.0656 63.8319 51.4545 63.4819 51.6814C62.7066 52.184 62.5969 53.2761 63.2567 53.9231C64.3359 54.981 66.0625 54.9809 67.1415 53.9231C67.8014 53.2762 67.6917 52.184 66.9163 51.6814C66.5663 51.4545 66.355 51.0656 66.355 50.6484V48.8112C66.355 47.6837 67.2687 46.7706 68.395 46.7706H82.6875C83.4107 46.7706 84 47.3567 84 48.0836V76.5307C84 80.6559 80.6572 84 76.5336 84H48.9097C47.7362 84 46.7848 83.0482 46.7848 81.8742V69.1636C46.7848 69.104 46.7365 69.0557 46.677 69.0557H45.9621C44.4828 70.6264 41.933 70.7157 40.3523 69.1182L40.3379 69.1037C38.343 67.067 38.3429 63.8079 40.3379 61.7714L40.3523 61.757C41.9329 60.1595 44.4828 60.2485 45.9621 61.8192H46.677C46.7365 61.8192 46.7848 61.7709 46.7848 61.7114V57.4195C46.7848 56.7396 47.3357 56.1885 48.0153 56.1885C48.6948 56.1885 49.2457 56.7396 49.2457 57.4195V61.7114C49.2457 63.1306 48.0957 64.2811 46.677 64.2811H45.3694C44.9523 64.2811 44.5637 64.0698 44.3368 63.7197C43.8343 62.944 42.7425 62.8343 42.0957 63.4945L42.0858 63.5046C41.0416 64.5811 41.0416 66.2938 42.0858 67.3706L42.0957 67.3806C42.7424 68.0407 43.8342 67.931 44.3368 67.1553C44.5637 66.8052 44.9523 66.5938 45.3694 66.5938H46.677C48.0957 66.5938 49.2457 67.7443 49.2457 69.1636ZM0 64.5279C0 68.6529 3.34295 71.9971 7.46641 71.9971H35.2264C36.3249 71.9971 37.2154 71.1063 37.2154 70.0074V57.1607C37.2154 55.7415 36.0653 54.591 34.6466 54.591H33.339C32.922 54.591 32.5333 54.8023 32.3065 55.1524C31.8039 55.9281 30.7121 56.0378 30.0654 55.3776L30.0653 55.3775C29.008 54.2983 29.0079 52.571 30.0654 51.4915C30.7121 50.8313 31.8039 50.941 32.3065 51.7167C32.5333 52.0668 32.922 52.2781 33.339 52.2781H34.6466C36.0651 52.2781 37.2154 51.128 37.2154 49.7085V37.2295H49.5519V38.0525C47.9773 39.5367 47.892 42.0983 49.5039 43.6786L49.5039 43.6787C51.54 45.6745 54.7977 45.6746 56.8336 43.6786L55.9724 42.7994L56.8336 43.6786C58.4454 42.0984 58.3606 39.5367 56.7856 38.0524V37.2295H70.1628C71.161 37.2295 71.9696 36.4199 71.9696 35.4219V7.46912C71.9696 3.34407 68.6268 2.28882e-05 64.5032 2.28882e-05H7.46641C3.343 2.28882e-05 0 3.34405 0 7.46912V64.5279ZM37.2153 34.7676H49.973C51.0995 34.7676 52.0128 35.6812 52.0128 36.8081V38.6454C52.0128 39.0626 51.8016 39.4514 51.4517 39.6783C50.6762 40.1812 50.5666 41.2734 51.2264 41.9203C52.3056 42.9781 54.0321 42.9781 55.1111 41.9203C55.771 41.2733 55.6614 40.1811 54.8859 39.6784C54.5359 39.4515 54.3247 39.0626 54.3247 38.6454V36.8081C54.3247 35.6811 55.2382 34.7676 56.3646 34.7676H69.5087V7.46912C69.5087 4.70378 67.2677 2.46193 64.5032 2.46193H37.2153V15.1897H38.038C39.5217 13.6143 42.0824 13.5292 43.662 15.1417L43.6621 15.1418C45.6569 17.1786 45.657 20.4375 43.6621 22.4742L43.662 22.4742C42.0824 24.0867 39.5217 24.0016 38.038 22.4262H37.2153V34.7676ZM7.46641 2.46193H34.7544V15.611C34.7544 16.7378 35.6674 17.6516 36.7942 17.6516H38.6307C39.0478 17.6516 39.4364 17.4403 39.6633 17.0902C40.1659 16.3144 41.2577 16.2048 41.9044 16.8649C42.9616 17.9445 42.9616 19.6717 41.9044 20.7511C41.2577 21.4112 40.1659 21.3015 39.6633 20.5258C39.4364 20.1757 39.0478 19.9643 38.6307 19.9643H36.7942C35.6674 19.9643 34.7544 20.8782 34.7544 22.0049V34.7675H32.2259C31.5463 34.7675 30.9954 35.3186 30.9954 35.9985C30.9954 36.6783 31.5463 37.2294 32.2259 37.2294H34.7544V49.7085C34.7544 49.7679 34.7063 49.8162 34.6466 49.8162H33.9317C32.448 48.2407 29.8873 48.156 28.3077 49.7684L29.1866 50.6299L28.3077 49.7684C26.3126 51.805 26.3125 55.0642 28.3077 57.1007C29.8873 58.7131 32.448 58.6283 33.9317 57.0529H34.6466C34.7062 57.0529 34.7544 57.1012 34.7544 57.1607V69.5352H7.46641C4.70211 69.5352 2.46097 67.2932 2.46097 64.5279V37.2295H14.8311C16.2497 37.2295 17.3997 36.0789 17.3997 34.6597V33.3517C17.3997 32.9344 17.1884 32.5456 16.8385 32.3187C16.0631 31.816 15.9534 30.7238 16.6134 30.0768C17.6924 29.0189 19.4189 29.0189 20.4979 30.0768C21.1578 30.7237 21.0482 31.8159 20.2728 32.3187C19.9229 32.5457 19.7117 32.9345 19.7117 33.3517V34.6597C19.7117 36.0789 20.8615 37.2295 22.2804 37.2295H26.9822C27.6618 37.2295 28.2127 36.6784 28.2127 35.9985C28.2127 35.3187 27.6618 34.7676 26.9822 34.7676H22.2804C22.2208 34.7676 22.1726 34.7194 22.1726 34.6597V33.9445C23.7473 32.4603 23.8323 29.8987 22.2205 28.3184L21.3695 29.1871L22.2204 28.3184C20.1845 26.3225 16.9268 26.3225 14.8909 28.3184C13.2791 29.8986 13.3638 32.4603 14.9387 33.9446V34.6597C14.9387 34.7194 14.8904 34.7676 14.8311 34.7676H2.46097V7.46912C2.46097 4.7038 4.70206 2.46193 7.46641 2.46193Z" fill="#E9561D"/>
</svg>
