<svg width="20" height="20" viewBox="0 0 20 20" fill="none" xmlns="http://www.w3.org/2000/svg">
<path fill-rule="evenodd" clip-rule="evenodd" d="M8.52257 0C10.7064 0 12.8909 0.829139 14.5519 2.48999C17.6348 5.57257 17.8552 10.4578 15.216 13.7997L19.7062 18.2895C19.8942 18.477 20 18.7317 20 18.9973C20 19.2629 19.8942 19.5176 19.7062 19.7054C19.5184 19.894 19.2634 20 18.9972 20C18.731 20 18.476 19.894 18.2882 19.7054L13.798 15.2156C10.4553 17.8507 5.57078 17.6344 2.48934 14.5535C-0.832394 11.2318 -0.828465 5.81146 2.49324 2.49033C4.15425 0.829482 6.33869 0.000342202 8.52256 0.000342202L8.52257 0ZM8.52061 1.98418C6.85153 1.98278 5.18216 2.6214 3.90337 3.9C1.34586 6.45727 1.34586 10.5802 3.90337 13.1377C6.46089 15.695 10.5803 15.6911 13.1377 13.1338C15.6952 10.5766 15.6952 6.46337 13.1377 3.9061C11.859 2.6275 10.1896 1.98577 8.52047 1.98441L8.52061 1.98418Z" fill="#2B2C38"/>
</svg>
