<svg width="24" height="24" viewBox="0 0 24 24" fill="none" xmlns="http://www.w3.org/2000/svg">
<path fill-rule="evenodd" clip-rule="evenodd" d="M10.2271 0C12.8477 0 15.4691 0.994967 17.4623 2.98799C21.1617 6.68708 21.4262 12.5494 18.2591 16.5596L23.6474 21.9474C23.8731 22.1724 24 22.478 24 22.7968C24 23.1155 23.8731 23.4211 23.6474 23.6465C23.4221 23.8728 23.1161 24 22.7966 24C22.4772 24 22.1712 23.8728 21.9459 23.6465L16.5576 18.2587C12.5464 21.4208 6.68494 21.1613 2.98721 17.4642C-0.998871 13.4782 -0.994158 6.97375 2.9919 2.9884C4.98511 0.995379 7.60643 0.000410642 10.2271 0.000410642L10.2271 0ZM10.2247 2.38101C8.22184 2.37934 6.2186 3.14568 4.68405 4.68001C1.61503 7.74873 1.61503 12.6962 4.68405 15.7653C7.75306 18.834 12.6964 18.8293 15.7653 15.7606C18.8343 12.6919 18.8343 7.75604 15.7653 4.68732C14.2308 3.153 12.2275 2.38293 10.2246 2.3813L10.2247 2.38101Z" fill="#E9561D"/>
</svg>
