<svg width="84" height="84" viewBox="0 0 84 84" fill="none" xmlns="http://www.w3.org/2000/svg">
<path d="M77.6498 18.0217H57.1605V12.0915C57.1605 10.8788 56.5848 9.71575 55.6203 8.9801C55.3819 8.79832 54.0768 7.84495 51.7916 6.92653C50.8251 6.53819 49.8017 6.20564 48.749 5.93838C48.0895 5.77054 47.4182 6.16971 47.2505 6.82973C47.083 7.48959 47.482 8.16044 48.142 8.32811C49.0886 8.56863 50.0072 8.86689 50.8722 9.21438C52.9395 10.0452 54.078 10.9047 54.1254 10.9408C54.482 11.2128 54.695 11.6428 54.695 12.0914V18.0217H51.8014V13.6091C51.8014 13.1458 51.5417 12.7215 51.1289 12.5109C49.6345 11.7485 46.4617 10.4693 41.9997 10.4693C37.5377 10.4693 34.3649 11.7483 32.8704 12.5109C32.4576 12.7215 32.1979 13.1456 32.1979 13.6091V18.0219H29.3042V12.0915C29.3042 11.6432 29.517 11.213 29.874 10.941C29.9214 10.9047 31.0592 10.0455 33.127 9.21438C35.795 8.14223 38.8631 7.57556 41.9997 7.57556C42.5235 7.57556 43.0544 7.59164 43.5776 7.62363C44.2575 7.66514 44.8419 7.14752 44.8832 6.46797C44.9246 5.78843 44.4073 5.20387 43.7276 5.16236C43.1547 5.12758 42.5732 5.10986 41.9997 5.10986C38.5511 5.10986 35.165 5.73806 32.2074 6.92653C29.9216 7.84528 28.6169 8.79848 28.3785 8.98026C27.4142 9.71559 26.8385 10.8786 26.8385 12.0914V18.0217H6.3502C2.84862 18.0217 0 20.8704 0 24.3718V41.6271C0 43.4432 0.76568 45.148 2.10952 46.3526V72.5399C2.10952 76.0413 4.95813 78.8899 8.45955 78.8899H57.1717C57.8527 78.8899 58.4046 78.3379 58.4046 77.657C58.4046 76.9761 57.8527 76.4241 57.1717 76.4241H8.45972C6.31788 76.4241 4.57538 74.6815 4.57538 72.5397V48.1858C6.36218 49.3685 8.79441 50.7238 11.9816 52.0042C12.613 52.2577 13.3314 51.9517 13.5854 51.3197C13.8392 50.6879 13.5325 49.97 12.9009 49.7162C8.3854 47.9025 5.51316 45.955 3.89878 44.6406C2.98807 43.8993 2.46586 42.8009 2.46586 41.6272V24.3718C2.46586 22.2299 4.20837 20.4874 6.3502 20.4874H77.65C79.7918 20.4874 81.5343 22.2299 81.5343 24.3718V41.6271C81.5343 42.8008 81.0121 43.8992 80.1014 44.6404C78.2578 46.1412 74.9426 48.3385 69.6178 50.2837C63.4966 52.5195 56.2367 53.8714 48.0257 54.3099V51.4948C48.0257 49.8743 46.7074 48.5561 45.0872 48.5561H38.9118C37.2914 48.5561 35.9732 49.8743 35.9732 51.4948V54.3117C29.3349 53.9565 23.2869 52.9977 17.9793 51.4577C17.326 51.2685 16.6415 51.6442 16.4517 52.2982C16.2619 52.9521 16.6382 53.6359 17.2922 53.8258C22.8154 55.4283 29.0953 56.4204 35.9732 56.78V57.3598C35.9732 60.6828 38.6766 63.386 41.9995 63.386C45.3223 63.386 48.0257 60.6828 48.0257 57.3598V56.7805C64.6974 55.9121 74.3467 51.5673 79.4246 48.1907V72.5399C79.4246 74.6817 77.6821 76.4242 75.5403 76.4242H62.1032C61.4222 76.4242 60.8703 76.9763 60.8703 77.6572C60.8703 78.338 61.4222 78.8901 62.1032 78.8901H75.5403C79.0417 78.8901 81.8903 76.0415 81.8903 72.54V46.3526C83.2343 45.148 83.9998 43.4432 83.9998 41.6272V24.3718C84 20.8704 81.1514 18.0217 77.6498 18.0217ZM34.6636 14.3884C36.1338 13.7405 38.6382 12.935 41.9995 12.935C45.3608 12.935 47.8652 13.7405 49.3354 14.3884V18.0217H34.6635V14.3884H34.6636ZM45.56 57.36C45.56 59.3233 43.9628 60.9205 41.9995 60.9205C40.0362 60.9205 38.4389 59.3233 38.4389 57.36V51.4948C38.4389 51.2339 38.6512 51.0218 38.9118 51.0218H45.0872C45.3479 51.0218 45.56 51.2339 45.56 51.4948V57.36Z" fill="#E9561D"/>
</svg>
