<svg width="84" height="84" viewBox="0 0 84 84" fill="none" xmlns="http://www.w3.org/2000/svg">
<g clip-path="url(#clip0_165_21351)">
<path d="M0.755322 30.9808L23.0911 41.4648C23.3157 41.5703 23.5669 41.605 23.8119 41.5653L31.965 40.2337C36.6243 39.4731 41.3863 41.0236 44.7039 44.382L51.5272 51.2892C51.9453 51.7124 52.1549 52.2726 52.1172 52.8663C52.0795 53.46 51.801 53.9892 51.3327 54.3563C50.6214 54.9138 49.6097 54.9384 48.8725 54.416L42.2198 49.7027C41.2757 49.0337 40.018 49.1098 39.1613 49.8871L34.2996 54.2987C33.7967 54.7552 33.7588 55.5329 34.2153 56.0358C34.6716 56.5387 35.4492 56.5766 35.9524 56.1201L40.7979 51.7095L47.4506 56.4228C48.2283 56.9737 49.1449 57.2476 50.0605 57.2476C51.0505 57.2476 52.0393 56.9275 52.8501 56.2918C53.863 55.4978 54.4903 54.306 54.5718 53.0217C54.6533 51.7375 54.1812 50.4761 53.2769 49.5607L47.8672 44.0846C50.728 43.3748 53.7564 43.4912 56.5666 44.446L59.4496 45.4257C59.7641 45.5324 60.0908 45.5852 60.4168 45.5852C60.9284 45.5852 61.4375 45.4552 61.8922 45.1997C61.898 45.1965 61.9037 45.1932 61.9093 45.1899L83.1648 32.7941C83.7515 32.4519 83.9497 31.699 83.6077 31.1123C83.2655 30.5254 82.5124 30.3275 81.9259 30.6694L60.6813 43.0588C60.5465 43.1324 60.3862 43.146 60.2409 43.0968L57.358 42.1173C53.6401 40.854 49.5924 40.8544 45.8809 42.103C42.0403 38.5627 36.7506 36.9606 31.5685 37.8065L23.7914 39.0768L1.80046 28.7544C1.18558 28.4658 0.45329 28.7303 0.164703 29.345C-0.123883 29.9599 0.140436 30.6922 0.755322 30.9808Z" fill="#E9561D"/>
<path d="M83.8276 54.0306C83.5296 53.4203 82.7929 53.1675 82.1828 53.4654L71.3629 58.7506C71.178 58.841 71.0186 58.9763 70.8995 59.1442L70.029 60.3715C68.9822 61.8474 67.627 63.0712 66.0642 63.9627C65.9427 63.7658 65.8045 63.5759 65.6479 63.3957L63.4988 60.9226C61.9333 59.1212 59.1944 58.9292 57.3929 60.4948L57.2159 60.6486C56.3003 61.4442 55.8015 62.5431 55.7369 63.6679C55.7181 63.6663 55.6992 63.6638 55.6804 63.6625C54.5275 63.5817 53.4115 63.9547 52.5389 64.7129L52.3616 64.8669C51.4455 65.6629 50.9466 66.7627 50.8825 67.8882C49.7591 67.7947 48.6006 68.1351 47.6847 68.9312L47.5073 69.0853C46.5912 69.8814 46.0924 70.9811 46.0281 72.1065C44.9046 72.013 43.746 72.3536 42.8299 73.1498L42.653 73.3036C41.7803 74.062 41.2553 75.1145 41.1743 76.2678C41.0935 77.421 41.4667 78.5367 42.2249 79.4093L43.2634 80.6045L42.8489 80.9711C42.8414 80.978 42.8337 80.9848 42.8263 80.9916C42.0255 81.7366 40.699 81.7177 39.918 80.9543C39.2485 80.218 39.2275 79.097 39.8722 78.3373C40.2935 77.841 40.2549 77.1021 39.7842 76.6523C39.3134 76.2027 38.5737 76.1977 38.0969 76.6412L37.9649 76.764C37.1639 77.5091 35.8373 77.4899 35.0564 76.7266C34.3776 75.9804 34.3632 74.8508 35.0259 74.0897C35.4555 73.5963 35.4237 72.853 34.9536 72.3982C34.4837 71.9435 33.7396 71.9363 33.2606 72.3818L33.2239 72.4159C32.4229 73.1608 31.0962 73.1419 30.3154 72.3785C29.6444 71.6408 29.6244 70.5184 30.2721 69.7584C30.652 69.3126 30.6647 68.6605 30.3025 68.2002C29.9401 67.7399 29.3034 67.5993 28.7808 67.8636C27.9711 68.2735 26.9881 68.0821 26.3901 67.3987C25.6943 66.6035 25.7825 65.3468 26.5851 64.5909L27.9075 63.4197L32.0328 59.6762C32.5357 59.2198 32.5736 58.442 32.1171 57.9391C31.6606 57.4361 30.8829 57.3984 30.38 57.8549L26.2659 61.5883L24.942 62.7608C24.9346 62.7676 24.927 62.7743 24.9198 62.781C24.2416 63.4118 23.7984 64.2103 23.5961 65.0559L23.5869 65.0507C21.3322 63.7729 19.3655 62.1007 17.7414 60.0809L17.0403 59.2089C16.9271 59.0682 16.7845 58.9541 16.6223 58.8748L1.81831 51.6327C1.20818 51.3346 0.471626 51.587 0.173202 52.1969C-0.125223 52.8071 0.127454 53.5436 0.737421 53.842L15.2953 60.9636L15.8248 61.6221C17.6445 63.885 19.8479 65.7585 22.3742 67.1903L23.9063 68.0587C24.0708 68.3994 24.2808 68.7229 24.5394 69.0182C25.2871 69.8727 26.3039 70.3833 27.3718 70.5076C27.2195 71.7682 27.6081 73.079 28.5298 74.0698C28.5399 74.0806 28.5503 74.0913 28.5606 74.1018C29.5113 75.0525 30.8068 75.4931 32.0766 75.4152C32.0828 76.4939 32.4821 77.5701 33.2706 78.4178C33.2808 78.4286 33.2911 78.4393 33.3015 78.4498C34.2838 79.4321 35.6346 79.8696 36.9444 79.7538C36.976 80.7972 37.3735 81.83 38.1318 82.6454C38.142 82.6563 38.1523 82.6669 38.1627 82.6774C39.0424 83.5571 40.2177 83.9995 41.3939 83.9995C42.5082 83.9995 43.6235 83.6022 44.4889 82.8033L44.9277 82.4152C45.6107 82.967 46.4436 83.2979 47.3379 83.3605C47.4414 83.3677 47.5444 83.3713 47.6472 83.3713C48.6892 83.3713 49.6851 83.0003 50.4792 82.3101L50.6567 82.156C51.5729 81.3598 52.0717 80.2598 52.1358 79.1344C52.2562 79.1444 52.3769 79.1508 52.4979 79.1508C53.5048 79.1508 54.5162 78.8023 55.3341 78.0915L55.511 77.9377C56.4272 77.1415 56.926 76.0417 56.9902 74.9161C57.1105 74.9261 57.2312 74.9325 57.3522 74.9325C58.3591 74.9325 59.3705 74.584 60.1884 73.8732L60.3653 73.7194C61.238 72.9611 61.763 71.9085 61.844 70.7552C61.8453 70.736 61.8455 70.717 61.8466 70.6978C61.9663 70.7076 62.0865 70.714 62.2067 70.714C63.2136 70.714 64.2248 70.3656 65.0425 69.6549L65.2198 69.501C66.1541 68.689 66.6542 67.5614 66.7021 66.4124C68.8209 65.3257 70.6526 63.7433 72.0354 61.7939L72.7244 60.8226L83.2624 55.6749C83.8727 55.3773 84.1258 54.6409 83.8276 54.0306ZM49.044 80.2999L48.8666 80.454C48.49 80.7813 48.0095 80.9424 47.5104 80.9075C47.0126 80.8726 46.5581 80.6458 46.2308 80.2692L44.0816 77.796C43.7542 77.4194 43.5932 76.9377 43.6281 76.4398C43.663 75.942 43.8898 75.4875 44.2666 75.1601L44.4435 75.0063C44.7967 74.6993 45.2332 74.5489 45.6679 74.5489C46.1905 74.5489 46.7104 74.7665 47.0793 75.191L49.2285 77.6644C49.9042 78.4417 49.8214 79.6241 49.044 80.2999ZM53.8979 76.0817L53.7209 76.2355C52.9434 76.9113 51.7608 76.8284 51.085 76.0507L48.9358 73.5774C48.2601 72.7997 48.3429 71.6173 49.1203 70.9418L49.2977 70.7876C50.0754 70.1119 51.2578 70.1947 51.9337 70.9724L54.0828 73.4456C54.7585 74.2233 54.6757 75.4058 53.8979 76.0817ZM59.3907 70.5837C59.3557 71.0815 59.129 71.536 58.7522 71.8635L58.5752 72.0173C57.7975 72.693 56.6152 72.6102 55.9393 71.8325L53.7901 69.3591C53.1142 68.5814 53.1972 67.3989 53.9748 66.7232L54.152 66.5692C54.495 66.2713 54.9248 66.1111 55.3749 66.1111C55.4192 66.1111 55.4638 66.1125 55.5084 66.1157C56.0062 66.1506 56.4607 66.3774 56.788 66.754L58.9371 69.2271C59.2646 69.6041 59.4256 70.0857 59.3907 70.5837ZM63.6068 67.6448L63.4296 67.7988C62.652 68.4745 61.4695 68.3917 60.7936 67.614L58.6444 65.1409C58.317 64.7642 58.156 64.2825 58.1909 63.7847C58.2258 63.2869 58.4524 62.8323 58.8294 62.5049L59.0063 62.3511C59.784 61.6754 60.9666 61.7582 61.6423 62.5359L63.7915 65.009C64.4673 65.7866 64.3844 66.9691 63.6068 67.6448Z" fill="#E9561D"/>
<path d="M37.5527 34.4131L40.9566 35.6614C41.2691 35.776 41.5975 35.8334 41.9261 35.8334C42.2546 35.8334 42.583 35.776 42.8957 35.6614L46.2994 34.4131C49.38 33.2834 52.1318 31.3666 54.257 28.8698C56.3584 26.4009 57.8049 23.4186 58.44 20.2453C58.5733 19.5793 58.1416 18.9314 57.4755 18.7981C56.8088 18.6645 56.1615 19.0967 56.0283 19.7626C54.9007 25.3963 50.8484 30.1252 45.4526 32.1038L42.0488 33.3521C41.9696 33.3811 41.8825 33.3811 41.8033 33.3521L38.3995 32.1038C31.8799 29.7129 27.4996 23.4409 27.4996 16.4968V5.8083C27.4996 5.51791 27.7065 5.26687 27.9915 5.21145L42.0019 2.48283L55.8617 5.20882C56.1461 5.26474 56.3525 5.51577 56.3525 5.80551V14.7624C56.3525 15.4415 56.9031 15.9921 57.5823 15.9921C58.2614 15.9921 58.812 15.4415 58.812 14.7624V5.80535C58.812 4.34339 57.7708 3.07755 56.3364 2.79552L42.2403 0.0231204C42.0844 -0.00754194 41.924 -0.00770591 41.7679 0.0226285L27.5212 2.79716C26.0834 3.07722 25.04 4.34356 25.04 5.8083V16.4972C25.04 24.4685 30.0685 31.6686 37.5527 34.4131Z" fill="#E9561D"/>
<path d="M42.2356 5.03551C42.0796 5.00468 41.9193 5.00468 41.7632 5.03502L30.9536 7.14006C30.376 7.25254 29.959 7.75855 29.959 8.34721V16.497C29.959 22.4137 33.6913 27.7576 39.2462 29.7948L41.5024 30.6222C41.639 30.6723 41.7825 30.6973 41.9258 30.6973C42.0693 30.6973 42.2126 30.6722 42.3492 30.6222L44.6056 29.7948C50.1605 27.7578 53.8928 22.4137 53.8928 16.497V8.33966C53.8928 7.752 53.477 7.24648 52.9003 7.13301L42.2356 5.03551ZM51.4333 16.497C51.4333 21.3862 48.3492 25.8023 43.7588 27.4856L41.926 28.1579L40.0931 27.4857C35.5026 25.8023 32.4185 21.3864 32.4185 16.4972V9.3607L41.9971 7.49538L51.4333 9.35119V16.497Z" fill="#E9561D"/>
<path d="M38.7705 18.7759C38.2756 18.3105 37.4976 18.3346 37.0321 18.8293C36.5669 19.3242 36.5908 20.1024 37.0855 20.5677L39.0705 22.4343C39.2993 22.6495 39.6008 22.7682 39.9128 22.7682C39.9389 22.7682 39.9651 22.7674 39.9914 22.7657C40.331 22.7441 40.6463 22.5826 40.8625 22.3199L47.292 14.5077C47.7235 13.9833 47.6483 13.2083 47.1239 12.7767C46.5995 12.3451 45.8244 12.4204 45.3929 12.9448L39.7982 19.7425L38.7705 18.7759Z" fill="#E9561D"/>
</g>
<defs>
<clipPath id="clip0_165_21351">
<rect width="84" height="84" fill="white"/>
</clipPath>
</defs>
</svg>
